<svg width="469" height="650" viewBox="0 0 469 650" fill="none" xmlns="http://www.w3.org/2000/svg">
<g opacity="0.6">
<path d="M121.2 29.131C137.276 25.4635 155.833 29.9688 175.772 41.5847C195.712 53.2014 216.881 71.8484 238.012 96.1661C280.265 144.793 322.142 215.838 353.559 297.773C384.975 379.708 399.934 456.893 398.769 515.426C398.186 544.697 393.572 569.225 385.032 587.339C376.492 605.452 364.097 617.018 348.02 620.685C331.944 624.353 313.387 619.848 293.448 608.232C273.508 596.615 252.339 577.968 231.209 553.65C188.955 505.023 147.078 433.978 115.662 352.043C84.245 270.108 69.2861 192.923 70.4514 134.391C71.0342 105.12 75.6481 80.5911 84.1886 62.4772C92.7285 44.3647 105.123 32.7985 121.2 29.131Z" stroke="#9EADFF" stroke-width="3"/>
<path d="M120.658 27.709L348.553 622.064" stroke="#9EADFF" stroke-width="3"/>
<path d="M174.715 168.718C207.386 161.265 243.733 171.816 276.154 195.142C308.575 218.468 336.963 254.508 353.545 297.755C370.127 341.002 371.72 383.154 360.965 416.33C350.208 449.506 327.149 473.609 294.477 481.062C261.806 488.515 225.459 477.965 193.038 454.638C160.618 431.312 132.23 395.272 115.648 352.025C99.0654 308.779 97.4719 266.626 108.228 233.451C118.984 200.274 142.043 176.171 174.715 168.718Z" stroke="#9EADFF" stroke-width="3"/>
</g>
</svg>
