<svg width="179" height="76" viewBox="0 0 179 76" fill="none" xmlns="http://www.w3.org/2000/svg">
<path d="M39.1267 10.9832C37.3468 10.9832 35.6672 11.8114 34.5779 13.2262L1.01527 56.8175C-1.43187 59.9958 0.821855 64.6135 4.82022 64.6135H70.9298C73.587 64.6135 75.7411 62.4483 75.7411 59.7774V15.6084C75.7411 13.054 73.681 10.9832 71.1396 10.9832C69.3598 10.9832 67.6802 11.8114 66.5908 13.2262L43.7282 42.9202V15.6084C43.7282 13.054 41.668 10.9832 39.1267 10.9832Z" fill="#111111"/>
<path fill-rule="evenodd" clip-rule="evenodd" d="M135.21 59.1818C135.181 59.1924 135.152 59.203 135.123 59.2136C123.723 63.385 112.527 65.1167 103.545 64.4315C94.7943 63.7639 86.8226 60.6368 84.3138 53.6333C81.805 46.6298 85.9333 39.028 92.2144 32.8015C98.6617 26.4103 108.334 20.4245 119.705 16.175C119.755 16.1562 119.805 16.1375 119.856 16.1189L119.909 16.0991L120.024 16.0568C131.533 11.8005 142.854 10.0301 151.92 10.7216C160.671 11.3892 168.642 14.5163 171.151 21.5198C173.66 28.5233 169.532 36.1252 163.251 42.3516C156.743 48.8024 146.95 54.8401 135.441 59.0964L135.327 59.1385L135.273 59.1585C135.252 59.1663 135.231 59.174 135.21 59.1818ZM103.974 58.2508C107.804 58.5429 112.185 58.3395 116.903 57.6096C113.17 55.4843 110.005 52.2659 107.915 48.2055L91.8155 54.1593C94.0204 56.2193 97.9957 57.7947 103.974 58.2508ZM89.7277 48.331C90.1135 45.3129 92.1621 41.5098 96.4531 37.256C99.202 34.5311 102.687 31.8254 106.763 29.3032C105.248 33.3692 104.86 37.9017 105.827 42.3772L89.7277 48.331ZM113.687 46.0708C117.601 52.8355 125.697 56.0332 133.067 53.3736C133.102 53.3607 133.137 53.3478 133.172 53.3349C133.193 53.3273 133.214 53.3196 133.235 53.312C140.606 50.5586 144.815 42.7973 143.529 35.0349L113.687 46.0708ZM141.441 29.2066L111.599 40.2426C110.318 32.5044 114.497 24.7675 121.825 21.9915C121.881 21.9707 121.937 21.9499 121.993 21.9291C129.381 19.2242 137.515 22.4207 141.441 29.2066ZM149.302 32.9002C150.278 37.4151 149.874 41.9879 148.326 46.0813C152.564 43.4936 156.179 40.7055 159.012 37.8971C163.303 33.6433 165.352 29.8402 165.737 26.8221L149.302 32.9002ZM163.649 20.9938L147.214 27.072C145.105 22.9759 141.903 19.7367 138.127 17.6121C143.011 16.8265 147.544 16.6012 151.491 16.9023C157.469 17.3584 161.445 18.9338 163.649 20.9938Z" fill="#111111"/>
</svg>
