<svg width="227" height="186" viewBox="0 0 227 186" fill="none" xmlns="http://www.w3.org/2000/svg">
<g filter="url(#filter0_b_679_902)">
<ellipse cx="99.1537" cy="58.7633" rx="99.1537" ry="58.7633" transform="matrix(0.939729 0.34192 -0.313551 0.949571 38.6748 3.34766)" fill="white"/>
<path d="M204.49 126.184C199.752 140.534 185.611 150.365 165.814 154.249C146.072 158.123 121.125 155.962 95.7073 146.714C70.2898 137.465 49.4202 122.956 36.1968 107.088C22.9364 91.1757 17.6254 74.2672 22.3639 59.9169C27.1024 45.5666 41.2429 35.7355 61.0403 31.8512C80.7823 27.9776 105.729 30.1387 131.147 39.3869C156.564 48.635 177.434 63.1444 190.657 79.0123C203.918 94.9248 209.229 111.833 204.49 126.184Z" stroke="#4456FA" stroke-width="4.5"/>
</g>
<path d="M84.0418 71.1844L79.9622 82.4824L81.8481 83.2281L80.8414 86.0159L78.9555 85.2702L77.7722 88.5471L74.6049 87.2947L75.7881 84.0178L67.0356 80.5568L68.0334 77.7935L80.3425 69.7216L84.0418 71.1844ZM71.5964 79.1744L76.7948 81.23L79.3556 74.1381L71.5964 79.1744ZM98.9125 77.0645L94.8328 88.3625L96.7187 89.1083L95.7121 91.8961L93.8262 91.1504L92.6429 94.4273L89.4755 93.1748L90.6588 89.8979L81.9062 86.437L82.904 83.6736L95.2132 75.6018L98.9125 77.0645ZM86.4671 85.0546L91.6655 87.1101L94.2263 80.0183L86.4671 85.0546ZM96.6406 92.2353L100.098 93.6025L98.906 96.9038L95.4485 95.5367L96.6406 92.2353ZM104.216 85.8409C105.62 81.9527 109.224 80.6949 112.948 82.1673C114.713 82.8652 116.158 84.2192 116.892 86.2421C117.567 88.046 117.379 90.403 116.416 93.0685C114.527 98.3018 111.11 102.177 106.033 100.169C103.204 99.0505 101.591 96.7079 101.69 93.7567L104.782 94.7561C104.928 95.9595 105.716 96.914 106.949 97.4015C109.44 98.3863 111.553 96.8186 113.027 93.3492C111.684 94.4669 109.913 94.8566 107.81 94.0248C104.497 92.715 102.936 89.3868 104.216 85.8409ZM107.392 87.0689C106.668 89.0742 107.387 91.0631 109.249 91.7992C111.28 92.6023 113.148 91.6364 113.896 89.6407C114.687 87.6057 113.946 85.5243 111.939 84.7308C110.005 83.9659 108.134 85.0147 107.392 87.0689ZM118.756 91.5904C120.16 87.7021 123.764 86.4444 127.488 87.9167C129.253 88.6146 130.698 89.9686 131.432 91.9915C132.107 93.7954 131.919 96.1524 130.957 98.818C129.067 104.051 125.651 107.926 120.573 105.919C117.744 104.8 116.131 102.457 116.23 99.5061L119.323 100.506C119.468 101.709 120.256 102.663 121.49 103.151C123.98 104.136 126.093 102.568 127.567 99.0986C126.224 100.216 124.453 100.606 122.35 99.7742C119.037 98.4644 117.476 95.1363 118.756 91.5904ZM121.933 92.8184C121.208 94.8236 121.927 96.8125 123.789 97.5487C125.82 98.3518 127.688 97.3859 128.437 95.3902C129.227 93.3551 128.486 91.2737 126.479 90.4802C124.545 89.7154 122.674 90.7642 121.933 92.8184ZM135.935 111.993C131.462 110.224 130.068 105.593 132.046 100.115C134.033 94.6127 138.014 92.0791 142.487 93.8478C146.96 95.6165 148.322 100.263 146.335 105.765C144.357 111.243 140.408 113.762 135.935 111.993ZM135.31 101.406C133.844 105.465 134.419 108.235 136.933 109.23C139.448 110.224 141.629 108.544 143.095 104.484C144.57 100.4 144.004 97.6055 141.49 96.6112C138.975 95.6169 136.784 97.3217 135.31 101.406Z" fill="#4456FA"/>
<path d="M164.054 102.823C168.067 104.41 169.71 107.435 168.465 110.883C167.211 114.355 164.058 115.512 160.045 113.925L156.539 112.539L155.929 114.226L158.275 115.153L157.586 117.061L155.241 116.134L154.278 118.799L151.135 117.556L152.097 114.891L149.68 113.935L150.368 112.027L152.786 112.983L157.405 100.193L164.054 102.823ZM157.537 109.775L160.897 111.104C163.025 111.946 164.554 111.46 165.225 109.602C165.879 107.792 165.063 106.38 162.911 105.529L159.55 104.2L157.537 109.775Z" fill="#C5943D"/>
<defs>
<filter id="filter0_b_679_902" x="-58.5168" y="-49.1945" width="343.887" height="284.49" filterUnits="userSpaceOnUse" color-interpolation-filters="sRGB">
<feFlood flood-opacity="0" result="BackgroundImageFix"/>
<feGaussianBlur in="BackgroundImageFix" stdDeviation="38.4718"/>
<feComposite in2="SourceAlpha" operator="in" result="effect1_backgroundBlur_679_902"/>
<feBlend mode="normal" in="SourceGraphic" in2="effect1_backgroundBlur_679_902" result="shape"/>
</filter>
</defs>
</svg>
