<svg width="227" height="186" viewBox="0 0 227 186" fill="none" xmlns="http://www.w3.org/2000/svg">
<g filter="url(#filter0_b_679_892)">
<ellipse cx="99.1537" cy="58.7633" rx="99.1537" ry="58.7633" transform="matrix(0.939729 0.34192 -0.313551 0.949571 38.9287 3.10059)" fill="white"/>
<path d="M204.744 125.937C200.006 140.287 185.865 150.118 166.068 154.002C146.326 157.876 121.379 155.715 95.9612 146.467C70.5437 137.218 49.6741 122.709 36.4508 106.841C23.1903 90.9286 17.8793 74.0201 22.6178 59.6698C27.3563 45.3195 41.4968 35.4885 61.2942 31.6041C81.0362 27.7306 105.983 29.8916 131.401 39.1398C156.818 48.3879 177.688 62.8973 190.911 78.7652C204.172 94.6777 209.483 111.586 204.744 125.937Z" stroke="#4456FA" stroke-width="4.5"/>
</g>
<path d="M81.3991 61.9132C82.9562 58.6723 86.3296 57.2116 90.0047 58.6648C93.4381 60.0224 95.1425 63.1836 94.0652 66.1671C93.1115 68.8082 90.4824 69.5851 87.5347 70.0963C86.2348 70.253 82.4159 71.0345 81.7387 72.5273L90.6121 76.036L89.6143 78.7994L76.9206 73.7801C78.775 68.6446 82.6558 67.6919 86.6746 67.0454C88.8612 66.6524 90.4015 66.0598 90.8341 64.8615C91.3286 63.492 90.5785 62.0496 89.0069 61.4282C87.266 60.7398 85.6905 61.4303 84.5684 63.3899L81.3991 61.9132ZM109.124 66.6721L105.044 77.9701L106.93 78.7158L105.924 81.5036L104.038 80.7579L102.854 84.0348L99.687 82.7824L100.87 79.5055L92.1177 76.0445L93.1156 73.2812L105.425 65.2093L109.124 66.6721ZM96.6786 74.6621L101.877 76.7176L104.438 69.6258L96.6786 74.6621ZM106.852 81.8429L110.31 83.21L109.118 86.5114L105.66 85.1442L106.852 81.8429ZM116.055 69.4126L128.579 74.365L127.67 76.8838C122.975 79.5548 119.004 83.7415 117.014 89.634L113.799 88.3624C115.733 83.0069 119.69 78.7032 124.511 75.9142L115.057 72.176L116.055 69.4126ZM130.166 95.2816C125.693 93.5129 124.299 88.8813 126.277 83.4035C128.264 77.9012 132.245 75.3677 136.719 77.1364C141.192 78.9051 142.553 83.5516 140.566 89.0538C138.588 94.5317 134.639 97.0504 130.166 95.2816ZM129.541 84.6942C128.075 88.7537 128.65 91.524 131.164 92.5183C133.679 93.5126 135.86 91.8322 137.326 87.7727C138.801 83.6888 138.235 80.894 135.721 79.8997C133.206 78.9054 131.016 80.6103 129.541 84.6942ZM145.604 101.386C141.131 99.6172 139.736 94.9856 141.714 89.5078C143.701 84.0055 147.683 81.4719 152.156 83.2406C156.629 85.0093 157.99 89.6558 156.004 95.1581C154.026 100.636 150.077 103.155 145.604 101.386ZM144.978 90.7984C143.512 94.8579 144.087 97.6282 146.602 98.6225C149.116 99.6168 151.298 97.9364 152.764 93.877C154.238 89.793 153.673 86.9983 151.158 86.004C148.643 85.0097 146.453 86.7145 144.978 90.7984Z" fill="#4456FA"/>
<path d="M85.0458 90.4716C89.0594 92.0587 90.7025 95.0838 89.4574 98.5319C88.2035 102.004 85.0505 103.161 81.0368 101.574L77.531 100.188L76.9217 101.875L79.267 102.802L78.5782 104.71L76.2329 103.783L75.2704 106.448L72.1272 105.205L73.0897 102.54L70.6719 101.584L71.3607 99.6761L73.7785 100.632L78.3968 87.8425L85.0458 90.4716ZM78.5288 97.4243L81.8896 98.7533C84.0173 99.5946 85.5464 99.1094 86.2175 97.2508C86.871 95.4412 86.0548 94.0285 83.9029 93.1776L80.5421 91.8487L78.5288 97.4243ZM84.8792 113.322L99.6059 95.1111L102.677 96.3253L87.9257 114.526L84.8792 113.322ZM102.494 102.401L106.29 103.902L106.127 115.296L113.205 106.637L116.977 108.128L112.297 121.089L109.178 119.856L111.977 112.104L106.349 118.737L103.786 117.724L103.708 108.834L100.909 116.586L97.8137 115.362L102.494 102.401ZM115.811 115.073C117.294 110.964 120.771 109.293 124.616 110.813C127.928 112.123 129.758 115.474 128.155 120.066L127.881 120.824L118.766 117.219C118.134 119.429 118.778 121.165 120.616 121.891C121.776 122.35 123.087 122.086 123.953 121.143L127.032 122.64C125.366 124.804 122.48 125.451 119.724 124.361C115.879 122.841 114.327 119.181 115.811 115.073ZM119.541 115.15L125.44 117.483C126.002 115.162 125.102 113.828 123.724 113.283C122.007 112.604 120.48 113.314 119.541 115.15ZM138.738 122.183C139.079 120.473 138.246 119.109 136.892 118.574C134.885 117.78 133.183 118.896 132.221 121.562C131.258 124.227 131.829 126.242 133.836 127.035C135.263 127.599 136.735 127.119 137.612 125.454L140.775 126.872C139.282 129.859 136.109 130.84 132.918 129.578C129.074 128.058 127.522 124.398 129.005 120.29C130.489 116.182 133.966 114.51 137.81 116.031C140.905 117.254 142.748 120.107 141.992 123.273L138.738 122.183Z" fill="#C5943D"/>
<defs>
<filter id="filter0_b_679_892" x="-58.2629" y="-49.4416" width="343.887" height="284.49" filterUnits="userSpaceOnUse" color-interpolation-filters="sRGB">
<feFlood flood-opacity="0" result="BackgroundImageFix"/>
<feGaussianBlur in="BackgroundImageFix" stdDeviation="38.4718"/>
<feComposite in2="SourceAlpha" operator="in" result="effect1_backgroundBlur_679_892"/>
<feBlend mode="normal" in="SourceGraphic" in2="effect1_backgroundBlur_679_892" result="shape"/>
</filter>
</defs>
</svg>
