<svg width="217" height="156" viewBox="0 0 217 156" fill="none" xmlns="http://www.w3.org/2000/svg">
<path d="M207.223 40.2066C208.442 45.5502 206.944 51.7184 203.083 58.3461C199.222 64.9743 193.023 72.0111 184.94 79.0351C168.775 93.0807 145.159 107.001 117.923 117.445C90.6864 127.888 65.029 132.86 45.5722 132.473C35.8421 132.279 27.6886 130.746 21.6674 127.907C15.6467 125.068 11.8023 120.948 10.5833 115.604C9.36426 110.261 10.8617 104.093 14.7229 97.4648C18.5843 90.8366 24.7828 83.7999 32.8663 76.7759C49.0306 62.7302 72.6467 48.8097 99.8832 38.3664C127.12 27.9231 152.777 22.9505 172.234 23.3379C181.964 23.5317 190.117 25.0654 196.139 27.9043C202.159 30.743 206.004 34.863 207.223 40.2066Z" stroke="#9EADFF"/>
<path d="M207.691 40.0274L10.1182 115.783" stroke="#9EADFF"/>
<path d="M160.817 58.0004C163.295 68.8604 159.787 80.9421 152.033 91.7192C144.28 102.496 132.3 111.932 117.924 117.444C103.549 122.957 89.5367 123.486 78.5089 119.911C67.4807 116.335 59.4689 108.67 56.9915 97.8104C54.514 86.9504 58.0211 74.8687 65.7751 64.0916C73.5288 53.3148 85.5088 43.8784 99.8844 38.3663C114.26 32.8543 128.272 32.3246 139.3 35.8999C150.328 39.4754 158.34 47.1404 160.817 58.0004Z" stroke="#9EADFF"/>
</svg>
